<svg width="17" height="13" fill="none" xmlns="http://www.w3.org/2000/svg"><path d="M15.231 3.25a6.95 6.95 0 0 0 1.625-1.688 6.15 6.15 0 0 1-1.875.5A3.206 3.206 0 0 0 16.42.25a6.93 6.93 0 0 1-2.063.813A3.281 3.281 0 0 0 11.95.03a3.28 3.28 0 0 0-3.28 3.282c0 .25.031.5.094.75A9.52 9.52 0 0 1 1.98.626a3.192 3.192 0 0 0-.437 1.656c0 1.125.562 2.125 1.469 2.719-.532-.031-1.063-.156-1.5-.406v.031a3.285 3.285 0 0 0 2.625 3.219c-.25.062-.563.125-.844.125-.219 0-.406-.032-.625-.063a3.265 3.265 0 0 0 3.062 2.282 6.597 6.597 0 0 1-4.062 1.406c-.281 0-.531-.031-.781-.063C2.325 12.47 4.044 13 5.918 13c6.032 0 9.313-4.969 9.313-9.313V3.25Z" fill="#141414"/></svg>