<svg width="73" height="75" fill="none" xmlns="http://www.w3.org/2000/svg"><path d="M11.42 58.86a1.417 1.417 0 0 1-1.844.796c-5.43-2.157-8.724-4.928-9.53-8.012a1.42 1.42 0 0 1 1.015-1.735 1.418 1.418 0 0 1 1.732 1.017c.559 2.14 3.34 4.303 7.832 6.088a1.421 1.421 0 0 1 .794 1.845Zm4.823-14.889a1.416 1.416 0 0 0 1.999-.16 1.424 1.424 0 0 0-.16-2.005 34.876 34.876 0 0 1-2.047-1.893c-6.237-6.25-9.503-14.195-8.513-20.527 2.661-.417 5.606-.08 8.59.92.126.065.264.113.408.14 3.971 1.408 7.995 3.973 11.486 7.471.878.88 1.715 1.815 2.487 2.775a1.418 1.418 0 0 0 1.996.215c.61-.492.706-1.388.214-2a37.678 37.678 0 0 0-2.69-3.002c-3.588-3.594-7.725-6.288-11.885-7.877-.1-2.572.334-4.92 1.255-6.77 2.343.51 4.768 1.939 6.948 4.102a35.046 35.046 0 0 0-.722 3.756 1.419 1.419 0 1 0 2.812.386c.954-6.968 3.974-12.819 8.15-15.874 4.175 3.055 7.195 8.904 8.149 15.87a1.419 1.419 0 1 0 2.812-.385 34.894 34.894 0 0 0-.722-3.753c2.18-2.163 4.607-3.593 6.948-4.103.92 1.85 1.356 4.199 1.255 6.771-4.16 1.591-8.297 4.284-11.884 7.877a37.658 37.658 0 0 0-2.691 3.002 1.425 1.425 0 0 0 .214 2c.61.493 1.505.397 1.996-.215a35.244 35.244 0 0 1 2.487-2.775c3.491-3.498 7.513-6.065 11.485-7.471.145-.027.284-.075.41-.14 2.983-.998 5.928-1.337 8.589-.92.99 6.334-2.276 14.278-8.513 20.527a34.94 34.94 0 0 1-2.047 1.893 1.426 1.426 0 0 0-.162 2.005 1.42 1.42 0 0 0 2.001.162 37.725 37.725 0 0 0 2.214-2.048c7.21-7.222 10.78-16.67 9.102-24.067a1.421 1.421 0 0 0-1.07-1.072c-2.868-.655-6.045-.514-9.283.327-.03-3.132-.775-5.984-2.155-8.18a1.42 1.42 0 0 0-1.364-.653c-2.85.33-5.8 1.752-8.45 4.055C44.06 7.202 41.058 3.062 37.325.709a1.415 1.415 0 0 0-1.511 0c-3.732 2.353-6.736 6.493-8.568 11.626-2.65-2.303-5.595-3.725-8.45-4.055a1.418 1.418 0 0 0-1.362.654c-1.378 2.195-2.121 5.047-2.152 8.179-3.235-.841-6.414-.982-9.283-.327-.532.12-.947.538-1.07 1.072-1.68 7.396 1.893 16.843 9.103 24.067a38.27 38.27 0 0 0 2.212 2.046Zm-.672 11.121a1.422 1.422 0 0 0-.871-1.811c-4.283-1.5-6.84-3.397-6.84-5.072 0-1.082 1.115-2.305 3.137-3.445a1.422 1.422 0 0 0-1.39-2.478C6.563 44 5.022 45.992 5.022 48.211c0 3.072 3.022 5.753 8.74 7.758.154.055.312.08.468.08a1.423 1.423 0 0 0 1.34-.957Zm42.59-1.712a1.423 1.423 0 0 0 .456 2.77c.15 0 .305-.025.456-.076 5.92-2.014 9.05-4.734 9.05-7.865 0-2.138-1.436-4.07-4.27-5.743a1.416 1.416 0 0 0-1.942.503 1.423 1.423 0 0 0 .502 1.946c1.852 1.093 2.872 2.263 2.872 3.292-.001 1.696-2.73 3.678-7.124 5.173Zm-7.514 10.394c0 1.44-1.17 2.614-2.608 2.614a1.42 1.42 0 0 0-1.42 1.422 1.42 1.42 0 0 0 1.42 1.422c3.003 0 5.446-2.448 5.446-5.458a1.42 1.42 0 1 0-2.838 0Zm21.29-13.865a1.419 1.419 0 0 0-1.73 1.017c-.56 2.142-3.34 4.303-7.83 6.088a1.424 1.424 0 0 0 .522 2.745c.174 0 .352-.032.524-.102 5.43-2.158 8.726-4.93 9.531-8.013a1.426 1.426 0 0 0-1.016-1.735Zm-25.218.617c0 .775-.628 1.404-1.401 1.404a1.42 1.42 0 0 0-1.42 1.422 1.42 1.42 0 0 0 1.42 1.422 4.249 4.249 0 0 0 4.24-4.248 1.42 1.42 0 1 0-2.839 0Zm-4.055-9.083h.37a1.42 1.42 0 0 0 1.42-1.422 1.42 1.42 0 0 0-1.42-1.422h-.37a1.421 1.421 0 0 0 0 2.844Zm14.66 16.305a10.496 10.496 0 0 1 1.989 6.163c0 5.833-4.735 10.579-10.557 10.579H24.39c-5.82 0-10.557-4.745-10.557-10.577 0-3.87 2.14-7.411 5.46-9.256a8.558 8.558 0 0 1 4.983-11.505 6.57 6.57 0 0 1-1.164-3.74c0-3.636 2.952-6.594 6.58-6.594h13.76c3.628 0 6.58 2.958 6.58 6.594 0 3.635-2.952 6.593-6.58 6.593h-13.76a6.567 6.567 0 0 1-2.498-.492 1.772 1.772 0 0 1-.097.003c-3.137 0-5.688 2.556-5.688 5.7 0 1.174.357 2.27.969 3.178.048.058.092.12.131.186a5.683 5.683 0 0 0 4.588 2.334h18.95a5.695 5.695 0 0 0 3.622-10.083 1.425 1.425 0 0 1-.183-2.003 1.418 1.418 0 0 1 1.999-.185 8.537 8.537 0 0 1 3.088 6.57c0 4.711-3.824 8.544-8.525 8.544h-18.95a8.494 8.494 0 0 1-6.232-2.72c-2.542 1.317-4.194 3.97-4.194 6.874 0 4.265 3.463 7.735 7.719 7.735h24.365c4.255 0 7.718-3.47 7.718-7.733a7.655 7.655 0 0 0-1.453-4.5 1.426 1.426 0 0 1 .321-1.985 1.417 1.417 0 0 1 1.982.32ZM25.952 39.412a3.75 3.75 0 0 0 3.74 3.749h13.761a3.75 3.75 0 0 0 0-7.498h-13.76a3.75 3.75 0 0 0-3.741 3.749Z" fill="#7A9CA5"/></svg>