<svg width="49" height="73" fill="none" xmlns="http://www.w3.org/2000/svg"><path d="M35.989 29.318c-1.026-.665-2.885-1.062-4.977-1.062-2.091 0-3.952.397-4.975 1.062a1.093 1.093 0 1 0 1.192 1.835c.544-.353 1.925-.708 3.784-.708 1.86 0 3.24.355 3.784.708a1.09 1.09 0 0 0 1.514-.32 1.096 1.096 0 0 0-.322-1.515Zm-5.423 14.778a1.095 1.095 0 0 0-1.545-.087c-.66.59-2.314 1.183-4.521 1.183-2.21 0-3.863-.595-4.522-1.183a1.094 1.094 0 1 0-1.458 1.633c1.22 1.09 3.455 1.74 5.98 1.74 2.525 0 4.76-.65 5.979-1.74.451-.404.49-1.094.087-1.546ZM21.91 34.45a1.093 1.093 0 0 0-1.545-.07c-.316.287-1.195.598-2.378.598-1.182 0-2.061-.31-2.378-.599a1.094 1.094 0 1 0-1.475 1.616c.804.734 2.244 1.171 3.853 1.171s3.05-.437 3.853-1.171c.446-.406.478-1.1.07-1.545Zm1.052-5.132c-1.025-.665-2.884-1.062-4.975-1.062-2.09 0-3.951.397-4.975 1.062a1.094 1.094 0 0 0 1.191 1.834c.544-.353 1.925-.709 3.784-.709 1.86 0 3.24.356 3.784.709a1.093 1.093 0 1 0 1.191-1.834Zm11.973 5.132a1.093 1.093 0 0 0-1.545-.07c-.317.287-1.196.598-2.378.598-1.183 0-2.062-.31-2.378-.599a1.094 1.094 0 1 0-1.475 1.616c.804.734 2.244 1.171 3.853 1.171s3.049-.437 3.853-1.171c.447-.406.478-1.1.07-1.545Z" fill="#7A9CA5"/><path d="M45.706 65.065c-1.932-1.642-4.568-2.547-7.42-2.547-3.753 0-6.349-.836-7.442-1.271v-4.961a18.74 18.74 0 0 0 11.627-12.522c3.523-.441 6.261-3.46 6.261-7.094 0-3.36-2.377-6.247-5.572-6.975v-2.423c1.265-4.431 1.186-8.783.892-11.668a35.479 35.479 0 0 0-.603-3.85c-.17-.786-.28-1.21-.362-1.457a1.044 1.044 0 0 0-.067-.19c-1.212-2.569-3.368-4.758-6.127-6.4a1.12 1.12 0 0 0-.177-.104C33.326 1.636 29.049.49 24.5.49c-3.582 0-7.085.709-10.13 2.049a1.095 1.095 0 0 0 .882 2.004c2.769-1.22 5.967-1.863 9.248-1.863 3.63 0 7.052.78 9.89 2.147-1.33 1.145-2.914 2.247-4.807 3.345a1.094 1.094 0 1 0 1.1 1.895c2.292-1.33 4.172-2.678 5.725-4.102 1.898 1.243 3.41 2.79 4.372 4.564l-.117.18-.08.12c-2.396 3.49-7.481 6.834-14.837 9.758-.044.017-.09.034-.133.052a53.8 53.8 0 0 1-.482.188c-7.317 2.827-14.78 4.487-17.41 5.026-.597-2.423-.786-4.814-.764-6.95.91-.182 1.815-.444 2.7-.698.693-.202 1.41-.408 2.102-.569l.034-.008c4.498-1.191 8.925-2.8 14.355-5.217a1.093 1.093 0 1 0-.89-1.998c-5.312 2.365-9.633 3.937-14.008 5.096-.744.173-1.485.386-2.2.593a41.58 41.58 0 0 1-1.994.54c.238-3.057.82-5.254.937-5.674.758-1.57 1.956-2.998 3.563-4.247a1.095 1.095 0 0 0-1.341-1.73c-1.908 1.483-3.334 3.204-4.239 5.12a1.08 1.08 0 0 0-.057.15c-.104.344-2.513 8.502-.083 17.015V29.7c-3.192.724-5.57 3.613-5.57 6.972 0 3.634 2.739 6.653 6.26 7.095 1.627 5.81 6.002 10.48 11.627 12.521v4.961c-1.095.436-3.69 1.273-7.442 1.273-2.852 0-5.486.904-7.42 2.547-1.95 1.656-3.025 3.905-3.025 6.328 0 .605.489 1.094 1.094 1.094h46.28c.604 0 1.093-.49 1.093-1.094 0-2.423-1.075-4.672-3.027-6.331ZM42.98 41.326c.119-.858.18-1.724.18-2.589v-6.77c1.97.667 3.384 2.546 3.384 4.704a4.978 4.978 0 0 1-3.578 4.766c.006-.036.01-.074.014-.11ZM2.454 36.671c0-2.158 1.414-4.037 3.383-4.703v6.77c0 .865.062 1.73.18 2.588.006.037.009.075.014.111a4.98 4.98 0 0 1-3.577-4.766Zm38.733-23.076.076-.086c.07-.079.137-.157.203-.236l.04-.045c.496 2.766 1.002 7.63-.23 12.624-2.178-.446-7.678-1.658-13.646-3.668 6.253-2.587 10.791-5.462 13.558-8.59ZM8.29 41.678a16.36 16.36 0 0 1-.263-2.94V28.022c.01-.001.02-.004.032-.007 1.695-.338 3.38-.733 5.056-1.152 1.766-.441 3.522-.92 5.267-1.438 1.144-.34 2.283-.698 3.413-1.076l.062-.021h5.288c6.101 2.04 11.705 3.264 13.829 3.693v10.714c0 .972-.086 1.949-.258 2.907l-.005.033c-1.12 6.193-5.714 11.193-11.683 12.901l-.03.009a16.66 16.66 0 0 1-4.498.624c-1.515 0-3.045-.204-4.5-.624-.008-.002-.013-.005-.02-.006-5.973-1.707-10.57-6.708-11.69-12.902ZM2.558 70.3c.26-1.352 1.002-2.59 2.151-3.568 1.537-1.307 3.67-2.025 6.002-2.025 5.632 0 8.913-1.709 9.05-1.782.357-.19.58-.561.58-.966v-5.026c.003.418 3.936.466 4.157.466a18.72 18.72 0 0 0 4.157-.466v5.027c0 .405.224.777.58.967.137.073 3.418 1.781 9.05 1.781 2.333 0 4.465.719 6.002 2.025 1.15.978 1.891 2.217 2.151 3.568H2.558V70.3Z" fill="#7A9CA5"/></svg>