<svg width="67" height="79" fill="none" xmlns="http://www.w3.org/2000/svg"><path d="M12.86 32.002a1.542 1.542 0 1 0 0-3.085 1.542 1.542 0 0 0 0 3.085Z" fill="#7A9CA5"/><path d="M65.015 28.843c-.97-1.116-2.406-1.754-3.937-1.754H48.604v-2.64a7.022 7.022 0 0 0-7.014-7.015h-1.208v-.196a5.15 5.15 0 0 0-4.928-5.138V9.47c1.146-.269 2.14-.654 2.977-1.162 1.555-.943 2.228-2.083 2.52-2.872.648-1.763-.034-3.783-1.555-4.599A2.881 2.881 0 0 0 38.03.49c-1.032 0-2.001.573-2.586 1.51-.296.194-1.426.777-4.308.777H23.96c-3.647 0-5.913 2.493-5.913 6.508 0 1.967 1.418 3.569 3.16 3.569 1.553 0 2.849-1.271 3.112-2.94h3.448V12.1a5.15 5.15 0 0 0-4.927 5.138v.196h-1.21a7.022 7.022 0 0 0-7.014 7.014v.104h-4.52a3.642 3.642 0 0 0-3.637 3.637v6.874a5.093 5.093 0 0 0-1.792 3.88v2.265a8.795 8.795 0 0 0-3.675 6.575 88.475 88.475 0 0 0-.162 3.756 1.188 1.188 0 1 0 2.377.053c.028-1.263.081-2.49.157-3.652a6.425 6.425 0 0 1 3.697-5.39c.015-.005.029-.013.043-.02a6.431 6.431 0 0 1 2.637-.574h6.236c.906 0 1.813.201 2.637.575l.043.02c2.08.964 3.544 3.099 3.697 5.39.12 1.805.18 3.66.18 5.512 0 .876-.025 1.75-.043 2.626-.002.03-.002.06-.003.093-.011.309-.872 1.162-1.052 1.482a8.403 8.403 0 0 0-.711 1.655c-.403 1.307-.488 2.686-.512 4.046a25.549 25.549 0 0 0 .623 6.093 5.185 5.185 0 0 1-4.899 3.433H9.78c-2.449 0-4.594-1.746-5.105-4.152-.809-3.817-1.293-8.003-1.441-12.443a1.19 1.19 0 0 0-2.377.079c.152 4.579.655 8.905 1.492 12.858.74 3.498 3.867 6.038 7.431 6.038h6.159a7.545 7.545 0 0 0 5.825-2.715 21.52 21.52 0 0 0 3.014 5.496c.226.294.575.468.945.468h22.444c.37 0 .72-.174.944-.468.363-.474.705-.967 1.026-1.475h10.226a1.19 1.19 0 0 0 1.19-1.19v-9.82l2.824-20.396a1.189 1.189 0 1 0-2.356-.326L59.763 61.15h-6.217a9.214 9.214 0 0 0-.528-2.289 8.75 8.75 0 0 0-4.755-4.968l-.043-.313-2.962-21.4a2.319 2.319 0 0 1-.02-.23v-.012c-.021-.77.392-1.463.992-1.918.483-.366 1.117-.552 1.719-.552h13.13c.843 0 1.624.341 2.144.937.442.508.637 1.138.549 1.774l-1.093 7.894a1.189 1.189 0 1 0 2.356.327l1.092-7.897c.183-1.327-.211-2.628-1.112-3.661ZM23.957 7.534c-.548 0-1.23.063-1.624.497-.31.34-.346.817-.346 1.254 0 .701-.411 1.19-.782 1.19-.37 0-.781-.489-.781-1.19 0-3.593 2.213-4.128 3.533-4.128h7.179c1.109 0 2.26-.07 3.363-.308.949-.205 2.01-.51 2.709-1.223.254-.26.378-.754.821-.754.08 0 .157.021.238.064.42.225.7.992.446 1.68-.204.555-1.09 2.123-4.617 2.702l-.026.003c-.969.159-1.953.215-2.934.215l-7.179-.002Zm9.115 2.301v2.257h-2.927V9.913c.003.052 2.927-.053 2.927-.078Zm-5.09 4.636h7.254A2.768 2.768 0 0 1 38 17.235v.196H25.217v-.196a2.768 2.768 0 0 1 2.764-2.764ZM8.837 28.194v-.006c0-.694.564-1.258 1.257-1.258h5.527c.027 0 .053.003.08.005l.015.002c1.394.102 1.162 1.724 1.162 2.7v4.286a5.147 5.147 0 0 0-.93-.085H9.767c-.288 0-.625.084-.928.074-.09-1.894-.002-3.82-.002-5.718ZM18.673 40c0-.346-2.362-.425-2.697-.425H9.743c-.912 0-1.828.144-2.697.425v-1.06c0-1.471 1.253-2.725 2.725-2.725h6.18c.895 0 1.759.463 2.258 1.203.522.773.464 1.693.464 2.582Zm33.299 33.063.042-.135a30.88 30.88 0 0 0 1.052-3.565 25.48 25.48 0 0 0 .612-5.836h5.496v10.657h-7.737c.204.002.43-.774.535-1.121Zm-1.277-13.59h-5.617a1.19 1.19 0 1 0 0 2.38h6.14l.013.153c.37 4.928-.773 10.066-3.665 14.124h-21.24c-1.46-2.045-2.515-4.445-3.126-7.035a23.277 23.277 0 0 1-.529-7.241H40.32a1.19 1.19 0 1 0 0-2.38H23.192a6.352 6.352 0 0 1 1.32-1.978 6.52 6.52 0 0 1 4.6-1.936h15.666c.544 0 1.08.07 1.597.206 1.904.495 3.54 1.858 4.32 3.708Zm-4.471-32.102c0-.008-1.419.736-1.554.842-2.335 1.86-1.733 4.58-1.378 7.147l2.475 17.877c-.008-.002-.015-.002-.025-.002a9.08 9.08 0 0 0-.41-.035l-.09-.006a9.437 9.437 0 0 0-.466-.014H29.112a8.87 8.87 0 0 0-3.282.63c-.125.05-.919.326-.92.43.003-.266.003-.528.003-.79 0-1.905-.063-3.812-.186-5.67a8.874 8.874 0 0 0-2.282-5.35 8.566 8.566 0 0 0-.68-.67c-.09-.08-.714-.482-.714-.566v-2.256a5.156 5.156 0 0 0-1.792-3.883v-6.869c0-.085-.004-.17-.01-.253l-.005-.052a3.643 3.643 0 0 0-2.25-3.063v-.373a4.641 4.641 0 0 1 4.635-4.635h19.958a4.641 4.641 0 0 1 4.635 4.635c.002.002.002 2.926.002 2.926Z" fill="#7A9CA5"/></svg>